<?xml version="1.0" encoding="utf-8"?>
<!-- Generator: Adobe Illustrator 25.0.0, SVG Export Plug-In . SVG Version: 6.00 Build 0)  -->
<svg version="1.1" id="Layer_1" xmlns="http://www.w3.org/2000/svg" xmlns:xlink="http://www.w3.org/1999/xlink" x="0px" y="0px"
	 viewBox="0 0 500 350" style="enable-background:new 0 0 500 350;" xml:space="preserve">
<style type="text/css">
	.st0{fill:#E8E5DE;}
	.st1{fill:none;stroke:#1D252C;stroke-width:3.9898;stroke-miterlimit:10;}
	.st2{fill:#1D252C;}
</style>
<g>
	<g>
		<path class="st0" d="M179.95,322.3c3.09,1.42,6.29,2.6,9.47,3.8c3.82,1.45,7.66,2.81,11.57,3.99c3.98,1.21,7.98,2.26,12.04,3.19
			c3.45,0.79,6.91,1.64,10.41,2.18c7.5,1.15,15.04,2.05,22.63,2.31c7.91,0.27,15.8-0.15,23.67-0.87c4.15-0.38,8.27-1.19,12.37-1.92
			c3.08-0.54,6.15-1.16,9.17-1.96c7.66-2.04,15.16-4.49,22.52-7.46c3.74-1.51,7.39-3.28,10.98-5.1c2.85-1.45,5.67-2.96,8.38-4.66
			c3.71-2.32,7.53-4.56,11.01-7.22c3.49-2.67,6.9-5.41,10.27-8.22c2.39-1.99,4.67-4.11,6.89-6.28c2.98-2.92,5.94-5.89,8.71-9.01
			c4.58-5.16,8.97-10.44,13.03-16.02c2.55-3.5,5-7.07,7.35-10.7c5.82-9.03,10.98-18.48,15.31-28.32c3.16-7.2,5.94-14.53,8.53-21.96
			c2.49-7.16,4.27-14.56,5.93-21.95c1.43-6.38,2.47-12.85,3.11-19.36c0.76-7.6,1.26-15.16,0.99-22.79
			c-0.15-4.35-0.4-8.68-0.86-13.01c-0.36-3.36-0.91-6.68-1.49-10c-1.43-8.1-3.47-16.01-6.04-23.83c-2.41-7.32-5.25-14.4-8.58-21.36
			c-1.38-2.88-2.84-5.74-4.5-8.48c-2.21-3.65-4.43-7.35-7.01-10.76c-4.56-6.03-9.4-11.76-14.87-16.99
			c-6.55-6.26-13.95-11.59-22.03-15.7c-14.17-7.21-29.84-11.33-45.76-11.68c-8.49-0.19-16.98,0.63-25.31,2.29
			c-7.23,1.44-14.23,3.51-21.25,5.77c-12,3.86-23.75,8.48-35.73,12.42c-5.71,1.76-11.46,3.34-17.26,4.79
			c-6.3,1.57-12.63,3-18.99,4.3c-6.38,1.31-12.79,2.52-19.14,3.96c-7.13,1.61-14.18,3.65-21.04,6.17c-3.87,1.42-7.7,3.16-11.33,5.11
			c-3.6,1.93-7.13,4.03-10.47,6.38c-6.6,4.64-12.56,10-18.02,15.92c-4.79,5.2-8.88,11.01-12.65,16.97
			c-3.78,5.98-7.19,12.22-10.43,18.51c-3.32,6.46-6.27,13.06-8.77,19.89c-2.41,6.57-4.26,13.34-5.46,20.23
			c-0.68,3.88-1.05,7.82-1.34,11.74c-0.24,3.15-0.36,6.31-0.28,9.47c0.1,3.93,0.31,7.84,0.78,11.74c0.45,3.72,1.13,7.43,1.92,11.1
			c1.36,6.3,3.36,12.52,5.89,18.46c0.68,1.61,1.4,3.2,2.13,4.78c0.47,1.45,0.96,2.88,1.47,4.31c2.56,7.11,5.64,14.08,9.27,20.72
			c2.11,3.86,4.44,7.58,6.78,11.3c1.64,2.6,3.41,5.17,5.29,7.61c4.64,6.02,9.47,11.89,14.8,17.32c5.32,5.43,10.9,10.6,16.86,15.32
			c5.79,4.59,11.88,8.92,18.24,12.68C165.86,315.42,172.81,319.02,179.95,322.3z"/>
	</g>
	<g>
		<path class="st1" d="M404.75,120.67H101.91c-7.97,0-14.42-6.46-14.42-14.42V59.68c0-7.97,6.46-14.42,14.42-14.42h302.84
			c7.97,0,14.42,6.46,14.42,14.42v46.56C419.18,114.21,412.72,120.67,404.75,120.67z"/>
		<g>
			<circle class="st1" cx="374.84" cy="81.18" r="19.06"/>
			<line class="st1" x1="387.72" y1="95.23" x2="395.51" y2="103.02"/>
		</g>
		<path class="st2" d="M107.61,108.17L107.61,108.17c-1.42,0-2.58-1.15-2.58-2.58V60.34c0-1.42,1.15-2.58,2.58-2.58l0,0
			c1.42,0,2.58,1.15,2.58,2.58v45.26C110.19,107.02,109.04,108.17,107.61,108.17z"/>
		<rect x="91.79" y="141.45" class="st1" width="166.16" height="35.82"/>
		<line class="st1" x1="91.79" y1="195.33" x2="300.46" y2="195.33"/>
		<line class="st1" x1="312.52" y1="195.33" x2="370.23" y2="195.33"/>
		<line class="st1" x1="91.79" y1="213.87" x2="160.41" y2="213.87"/>
		<line class="st1" x1="172.47" y1="213.87" x2="370.23" y2="213.87"/>
		<rect x="91.79" y="243.98" class="st1" width="166.16" height="35.82"/>
		<line class="st1" x1="91.79" y1="297.86" x2="160.41" y2="297.86"/>
		<line class="st1" x1="172.47" y1="297.86" x2="370.23" y2="297.86"/>
		<line class="st1" x1="91.79" y1="316.39" x2="300.46" y2="316.39"/>
		<line class="st1" x1="312.52" y1="316.39" x2="370.23" y2="316.39"/>
	</g>
</g>
</svg>
