<?xml version="1.0" encoding="utf-8"?>
<!-- Generator: Adobe Illustrator 25.0.0, SVG Export Plug-In . SVG Version: 6.00 Build 0)  -->
<svg version="1.1" id="Layer_1" xmlns="http://www.w3.org/2000/svg" xmlns:xlink="http://www.w3.org/1999/xlink" x="0px" y="0px"
	 viewBox="0 0 500 350" style="enable-background:new 0 0 500 350;" xml:space="preserve">
<style type="text/css">
	.st0{fill:#E5D4D3;}
	.st1{fill:none;stroke:#1D252C;stroke-width:4.1072;stroke-miterlimit:10;}
	.st2{fill:none;}
</style>
<g>
	<g>
		<path class="st0" d="M394.85,171.91c-1.76-3.36-3.74-6.59-5.91-9.7c-2.12-3.02-4.37-5.97-6.82-8.73
			c-5.05-5.7-10.65-10.93-16.87-15.32c-10.94-7.72-22.91-13.73-34.92-19.6c-11.07-5.41-22.15-10.8-32.83-16.96
			c-4.09-2.46-8.13-4.98-12.07-7.68c-3.86-2.65-7.62-5.41-11.31-8.27c-2.46-1.97-4.91-3.95-7.31-6
			c-9.65-8.25-18.77-17.09-28.19-25.58c-5.11-4.61-10.43-9.06-15.98-13.14c-5.49-4.03-11.39-7.55-17.54-10.48
			c-3.31-1.58-6.7-3.07-10.18-4.25c-3.42-1.16-6.92-2.23-10.46-2.91c-3.51-0.68-7.06-1.14-10.64-1.25c-1.96-0.06-3.93-0.13-5.9-0.07
			c-1.77,0.06-3.52,0.21-5.28,0.39c-5.5,0.62-10.95,1.61-16.22,3.38c-2.12,0.71-4.24,1.48-6.27,2.43c-1.68,0.78-3.31,1.7-4.92,2.6
			c-2.12,1.19-4.16,2.51-6.14,3.93c-0.44,0.31-0.87,0.63-1.3,0.95c-0.73,0.45-1.46,0.9-2.17,1.36c-1.81,1.15-3.58,2.48-5.26,3.8
			c-1.29,1.02-2.55,2.06-3.78,3.16c-5.68,5.09-10.71,11.03-14.85,17.43c-4.14,6.41-7.35,13.3-9.77,20.54
			c-0.69,2.05-1.23,4.15-1.79,6.24c-0.39,1.45-0.72,2.95-0.97,4.42c-0.64,3.84-1.22,7.66-1.35,11.56c-0.13,3.86-0.09,7.66,0.25,11.5
			c0.34,3.8,0.88,7.55,1.57,11.3c1.17,6.36,2.8,12.62,4.34,18.9c1.36,5.76,2.54,11.52,3.26,17.39c0.24,3.08,0.35,6.14,0.33,9.23
			c-0.18,3.27-0.5,6.51-0.95,9.75c-1.18,6.75-2.81,13.38-4.64,19.97c-1.5,5.14-3.07,10.25-4.61,15.39
			c-1.95,6.5-3.96,13.05-5.17,19.74c-1.36,7.54-2.07,15.15-1.73,22.82c0.19,4.33,0.78,8.62,1.83,12.83
			c0.55,2.23,1.22,4.34,2.06,6.49c0.61,1.57,1.27,3.1,1.99,4.63c0.36,0.76,0.81,1.49,1.21,2.22c0.69,1.26,1.39,2.46,2.14,3.68
			c1.15,1.84,2.46,3.59,3.79,5.29c2.51,3.19,5.3,6.07,8.23,8.87c1.05,1,2.19,1.93,3.33,2.83c1.71,1.36,3.41,2.76,5.23,3.97
			c3.16,2.1,6.4,4.14,9.77,5.88c3.5,1.81,7.08,3.4,10.75,4.85c3.06,1.21,6.19,2.15,9.34,3.06c7.84,2.2,16.04,3.43,24.19,3.32
			c1.69-0.02,3.39-0.02,5.08-0.16c2.34-0.2,4.66-0.45,6.99-0.73c0.56-0.07,1.11-0.15,1.66-0.23c3.12-0.5,6.2-1.28,9.24-2.09
			c6.26-1.67,12.37-3.82,18.41-6.14c12.31-4.73,24.25-10.27,36.5-15.13c0.19-0.08,0.39-0.15,0.58-0.23
			c6.65-2.56,13.4-4.77,20.31-6.55c5.22-1.17,10.46-2.08,15.77-2.73c5.71-0.53,11.43-0.79,17.18-0.8
			c6.14-0.02,12.29,0.12,18.43,0.05c7.1-0.09,14.16-0.42,21.2-1.38c3.35-0.45,6.67-1.03,9.98-1.75c3.56-0.77,7.15-1.7,10.58-2.95
			c3.75-1.37,7.39-2.86,10.96-4.66c3.81-1.93,7.44-4.22,10.85-6.81c3.15-2.4,6-5.06,8.71-7.95c1.46-1.55,2.76-3.25,4.04-4.94
			c0.93-1.23,1.86-2.48,2.67-3.8c2.1-3.41,4.03-6.84,5.68-10.49c1.74-3.86,3.2-7.85,4.24-11.96c1.86-7.29,2.86-14.89,2.59-22.43
			c-0.26-7.57-1.33-15.04-3.36-22.35C400.73,184.94,398.17,178.26,394.85,171.91z"/>
	</g>
	<path class="st1" d="M264.06,311.7H32.03c-11.95,0-21.63-9.68-21.63-21.63V58.04c0-11.95,9.68-21.63,21.63-21.63h232.03
		c11.95,0,21.63,9.68,21.63,21.63v232.03C285.69,302.01,276,311.7,264.06,311.7z"/>
	<rect x="32.84" y="72.32" class="st1" width="143.64" height="42.97"/>
	<rect x="32.84" y="126.13" class="st1" width="143.64" height="42.97"/>
	<line class="st1" x1="32.84" y1="195.77" x2="126.21" y2="195.77"/>
	<line class="st1" x1="32.84" y1="208.19" x2="126.21" y2="208.19"/>
	<line class="st1" x1="32.84" y1="220.06" x2="126.21" y2="220.06"/>
	<path class="st1" d="M129.72,280.88H45.94c-7.23,0-13.1-5.86-13.1-13.1v0c0-7.23,5.86-13.1,13.1-13.1h83.78
		c7.23,0,13.1,5.86,13.1,13.1v0C142.82,275.01,136.96,280.88,129.72,280.88z"/>
	<polygon class="st0" points="291.51,274.29 275.39,247.26 275.39,121.05 291.51,112.4 	"/>
	<g id="dRX5qY_2_">
		<g>
			<path d="M333.74,187.53c2.01,4.58,4,9.41,6.26,14.12c1.5,3.11,1.04,4.92-2.36,6.23c-4.74,1.84-9.31,4.09-14.31,6.32
				c0.44,1.37,0.71,2.57,1.2,3.67c5.6,12.69,11.13,25.41,16.91,38.02c1.51,3.3,1.35,5.04-2.33,6.52
				c-7.24,2.91-14.27,6.34-21.45,9.43c-10.41,4.48-19.21,0.92-23.85-9.55c-6.46-14.57-12.92-29.15-19.39-43.72
				c-0.64-1.43-1.37-2.83-1.88-3.88c-5.56,0.53-10.76,1.61-15.91,1.41c-18.42-0.73-33.01-13.31-36.46-30.88
				c-3.52-17.96,5.12-35.3,21.88-43.03c17.52-8.07,35.41-15.33,52.78-23.69c35.41-17.02,61.58-43.68,79.62-78.45
				c0.62-1.19,0.86-2.74,0.8-4.09c-0.26-5.91,1.86-8.76,8.05-10.47c4.47-1.23,7.57,0.5,9.95,5.84
				c7.09,15.87,14.19,31.72,21.08,47.68c1.29,2.99,2.62,3.97,5.99,3.42c9.86-1.59,19.07,3.6,23.01,12.47
				c4.07,9.15,1.82,19.64-6.18,25.85c-2.92,2.27-2.55,4.03-1.32,6.76c7.01,15.55,13.9,31.15,20.83,46.74
				c3.3,7.43,1.31,12.11-6.57,13.92c-2.26,0.52-5.11-0.63-7.45-1.59c-2.81-1.16-5.2-3.63-8.07-4.33c-32.5-7.97-64.77-6.7-96.75,3
				c-1.06,0.32-2.08,0.78-3.1,1.23C334.48,186.57,334.31,186.9,333.74,187.53z M377.96,42.28c-1.12,1.64-1.71,2.35-2.15,3.16
				c-16.32,30.22-39.67,53.64-69.02,71.18c-3.17,1.89-3.15,3.44-1.81,6.42c8.34,18.44,16.61,36.91,24.65,55.48
				c1.58,3.65,3,4.58,7.03,3.34c31.71-9.74,63.82-11.28,96.25-3.82c1.6,0.37,3.22,0.61,5.65,1.06
				C418.23,133.16,398.31,88.2,377.96,42.28z M236.94,204.87c8.94,8.27,23.17,10.16,35.46,4.8c17.38-7.58,34.68-15.37,52-23.09
				c1.25-0.56,2.41-1.31,3.89-2.13c-9.54-21.56-18.92-42.74-28.39-64.13c-5.33,2.36-9.99,4.42-14.64,6.49
				c-13.83,6.16-27.7,12.24-41.48,18.51c-12.21,5.56-21.1,18.74-19.94,29.81C221.45,193.61,236.94,204.87,236.94,204.87z
				 M275.75,212.38c7.83,17.62,15.28,34.82,23.16,51.82c2.25,4.86,8.57,7.47,13.53,5.63c8.74-3.25,17.2-7.29,26.22-11.19
				c-9.3-20.92-18.32-41.22-27.55-62C299.12,201.98,287.71,207.06,275.75,212.38z M387.05,28.81c-6.48-0.63-9.5,3.82-7.22,8.95
				c11.33,25.48,22.72,50.94,34.02,76.44c9.75,22,19.41,44.05,29.14,66.06c2.26,5.12,3.94,5.73,8.34,3.77
				c4.32-1.93,3.68-4.84,2.15-8.27c-9.51-21.24-18.99-42.49-28.43-63.76c-11.63-26.22-23.18-52.48-34.85-78.68
				C389.36,31.45,387.83,29.9,387.05,28.81z M417.84,86.79c4.92,11.04,9.68,21.71,14.45,32.39c8.35-4.15,11.44-13.29,7.95-22.28
				C436.94,88.41,427.95,84.06,417.84,86.79z M329.91,188.12c-5.44,2.46-10.28,4.65-15.48,7.01c2.5,5.55,4.74,10.53,7.14,15.85
				c5.4-2.45,10.23-4.64,15.4-6.99C334.55,198.55,332.37,193.67,329.91,188.12z"/>
		</g>
	</g>
	<path class="st2" d="M387.05,28.81c-6.48-0.63-9.5,3.82-7.22,8.95c11.33,25.48,22.72,50.94,34.02,76.44
		c9.75,22,19.41,44.05,29.14,66.06c2.26,5.12,3.94,5.73,8.34,3.77c4.32-1.93,3.68-4.84,2.15-8.27
		c-9.51-21.24-18.99-42.49-28.43-63.76c-11.63-26.22-23.18-52.48-34.85-78.68C389.36,31.45,387.83,29.9,387.05,28.81z"/>
	<line class="st1" x1="452.73" y1="90.86" x2="489.6" y2="78.3"/>
	<line class="st1" x1="434.45" y1="73.45" x2="449.79" y2="42.28"/>
	<line class="st1" x1="451.15" y1="114.32" x2="485.62" y2="131.27"/>
</g>
</svg>
