<?xml version="1.0" encoding="utf-8"?>
<!-- Generator: Adobe Illustrator 25.0.0, SVG Export Plug-In . SVG Version: 6.00 Build 0)  -->
<svg version="1.1" id="Layer_1" xmlns="http://www.w3.org/2000/svg" xmlns:xlink="http://www.w3.org/1999/xlink" x="0px" y="0px"
	 viewBox="0 0 500 350" style="enable-background:new 0 0 500 350;" xml:space="preserve">
<style type="text/css">
	.st0{fill:#B0BCAF;}
	.st1{fill:none;stroke:#1D252C;stroke-width:4.1963;stroke-miterlimit:10;}
</style>
<g>
	<g>
		<path class="st0" d="M154.12,52.43c-12.17,5.41-23.05,13.39-31.98,23.26c-9.61,10.62-16.45,23.46-21.52,36.78
			c-2.29,6.02-4.05,12.28-5.54,18.54c-1.39,5.84-2.23,11.82-2.7,17.8c-0.45,5.66-0.54,11.4-0.24,17.07
			c0.19,3.54,0.6,7.05,1.07,10.56c0.29,2.18,0.68,4.35,1.23,6.48c0.5,1.93,0.97,3.9,1.61,5.79c0.35,1.03,0.75,2.06,1.17,3.07
			c2.74,9.88,7.12,19.28,12.23,28.18c2.04,3.47,4.13,6.89,6.53,10.13c2.88,3.89,5.94,7.65,9.25,11.2c4.33,4.65,9,8.97,14.02,12.86
			c5.16,4,10.46,7.82,15.77,11.62c4.56,3.27,9.12,6.54,13.7,9.79c4.56,3.24,9.13,6.46,13.94,9.34c5.57,3.34,11.25,6.5,17.16,9.18
			c5.82,2.64,11.79,5.08,17.94,6.85c12.86,3.7,26.25,5.74,39.64,5.91c13.25,0.18,26.53-0.79,39.55-3.33
			c12.2-2.38,24.33-5.64,35.96-10.02c7.12-2.68,13.9-5.92,20.46-9.76c5.94-3.49,11.49-7.49,16.82-11.87
			c5.16-4.24,9.8-9.15,14.12-14.23c4.37-5.14,8.19-10.74,11.56-16.58c3.78-6.55,7.06-13.34,9.66-20.44c2.37-6.45,4-13.15,5.15-19.92
			c1.54-9.07,2.12-18.26,1.7-27.42c-0.23-5.12-0.78-10.23-1.65-15.31c-1.16-6.78-2.83-13.48-4.69-20.1
			c-1.83-6.48-4.48-12.78-7.26-18.9c-3.25-7.17-7.75-13.58-12.59-19.75c-2.34-2.98-5.12-5.64-7.9-8.18c-2.08-1.9-4.25-3.7-6.46-5.45
			c-2.97-2.36-5.99-4.7-9.17-6.78c-3.14-2.05-6.41-3.9-9.73-5.65c-5.89-3.11-12.14-5.71-18.47-7.76
			c-12.64-4.09-25.75-6.67-38.92-8.37c-10.51-1.35-21.07-2.37-31.58-3.74c-1.93-0.27-3.87-0.55-5.8-0.84
			c-10.71-1.61-21.35-3.5-31.96-5.64c-2.74-0.55-5.47-1.11-8.22-1.59c-1.43-0.25-2.86-0.49-4.3-0.69c-0.46-0.07-0.91-0.13-1.36-0.19
			c-0.73-0.15-1.47-0.26-2.21-0.33c-1.35-0.18-2.71-0.32-4.07-0.46c-3.65-0.37-7.3-0.44-10.97-0.43c-6.6,0.02-13.23,0.92-19.67,2.36
			C168.06,47.12,160.97,49.39,154.12,52.43z"/>
	</g>
	<g>
		<path class="st1" d="M394.17,84.63H105.83c-17.88,0-32.38,14.5-32.38,32.38v81.51c0,17.88,14.5,32.38,32.38,32.38h21.28v47.05
			c0,8.08,9.92,11.96,15.41,6.02l48.99-53.07h202.66c17.88,0,32.38-14.5,32.38-32.38v-81.51C426.55,99.12,412.05,84.63,394.17,84.63
			z"/>
		<g>
			<circle class="st1" cx="151.91" cy="154.96" r="26.57"/>
			<circle class="st1" cx="248.08" cy="154.96" r="26.57"/>
			<circle class="st1" cx="344.25" cy="154.96" r="26.57"/>
		</g>
	</g>
</g>
</svg>
